<?xml version="1.0" encoding="utf-8"?>
<!-- Generator: Adobe Illustrator 18.1.1, SVG Export Plug-In . SVG Version: 6.00 Build 0)  -->
<svg version="1.1" id="Layer_1" xmlns="http://www.w3.org/2000/svg" xmlns:xlink="http://www.w3.org/1999/xlink" x="0px" y="0px"
	 viewBox="0 0 217.2 62" enable-background="new 0 0 217.2 62" xml:space="preserve">
<path fill="#FFFFFF" d="M56.7,15.8c0.1,3.3,2.1,5.3,5,5.3c2.9,0,5-2,5-4.7c0-2.1-0.9-3.5-2.9-4.3c-1-0.4-2.2-0.6-3.1-1.2
	c-0.8-0.5-1.2-1.1-1.2-2c0-1.3,1-2.3,2.3-2.3c1.4,0,2.3,0.8,2.4,2.3h2.2c-0.1-2.7-1.8-4.3-4.5-4.3c-2.5,0-4.6,1.9-4.6,4.4
	c0,2.8,1.8,3.6,4.2,4.5c1.9,0.7,2.9,1.4,2.9,3.1c0,1.5-1.2,2.6-2.7,2.6c-1.6,0-2.9-1.3-2.9-3.4c0,0,0,0,0-0.1H56.7z"/>
<path fill="#FFFFFF" d="M70,20.7h2V5.1h-2V20.7z M72,3.2V0h-2v3.2H72z"/>
<path fill="#FFFFFF" d="M88.4,7.5c-1-1.7-3.1-2.8-5.5-2.8c-2,0-3.7,0.7-4.9,2.1V5.1h-2v15.6h2v-7.6c0-1.8,0-3.1,0.7-4.3
	c0.8-1.4,2.2-2.1,4-2.1c3.1,0,4.5,1.7,4.5,5.3v8.8h1.9v-7.6c0-1.8,0-3.1,0.7-4.3c0.8-1.4,2.2-2.1,4-2.1c3.4,0,4.4,1.9,4.4,5.7v8.3
	h1.9v-7.9c0-5.3-1.6-8.1-6.1-8.1C91.6,4.7,89.7,5.7,88.4,7.5z"/>
<path fill="#FFFFFF" d="M103.3,12.9c0,4.4,3.4,8.2,8.1,8.2c4.5,0,8.1-3.8,8.1-8.4c0-4.3-3.6-8.1-8.2-8.1
	C107,4.6,103.3,8.2,103.3,12.9z M105.4,12.9c0-3.8,2.8-6.4,5.8-6.4c3.5,0,6.1,2.6,6.1,6.3c0,3.7-2.7,6.4-6,6.4
	C108,19.2,105.4,16.5,105.4,12.9z"/>
<path fill="#FFFFFF" d="M122.7,5.1v15.6h2v-7.6c0-1.8,0-3.1,0.7-4.3c0.8-1.4,2.2-2.1,4-2.1c3.2,0,4.5,1.7,4.5,5.3v8.8h2v-8.2
	c0-2.3-0.1-3.9-1-5.3c-1-1.6-2.9-2.5-5.2-2.5c-2.1,0-3.7,0.7-4.9,2.1V5.1H122.7z"/>
<path fill="#FFFFFF" d="M148,15.8c0.1,3.3,2.1,5.3,5,5.3c2.9,0,5-2,5-4.7c0-2.1-0.9-3.5-2.9-4.3c-1-0.4-2.2-0.6-3.1-1.2
	c-0.8-0.5-1.2-1.1-1.2-2c0-1.3,1-2.3,2.3-2.3c1.4,0,2.3,0.8,2.4,2.3h2.2c-0.1-2.7-1.8-4.3-4.5-4.3c-2.5,0-4.6,1.9-4.6,4.4
	c0,2.8,1.8,3.6,4.2,4.5c1.9,0.7,2.9,1.4,2.9,3.1c0,1.5-1.2,2.6-2.7,2.6c-1.6,0-2.9-1.3-2.9-3.4c0,0,0,0,0-0.1H148z"/>
<path fill="#FFFFFF" d="M173.5,7.5c-1-1.7-3.1-2.8-5.5-2.8c-2,0-3.7,0.7-4.9,2.1V5.1h-2v15.6h2v-7.6c0-1.8,0-3.1,0.7-4.3
	c0.8-1.4,2.2-2.1,4-2.1c3.1,0,4.5,1.7,4.5,5.3v8.8h1.9v-7.6c0-1.8,0-3.1,0.7-4.3c0.8-1.4,2.2-2.1,4-2.1c3.4,0,4.4,1.9,4.4,5.7v8.3
	h1.9v-7.9c0-5.3-1.6-8.1-6.1-8.1C176.8,4.7,174.8,5.7,173.5,7.5z"/>
<path fill="#FFFFFF" d="M189.3,20.7h2V5.1h-2V20.7z M191.3,3.2V0h-2v3.2H191.3z"/>
<path fill="#FFFFFF" d="M196.8,20.7h2V7.1h3v-2h-3V0h-2v5.1h-3v2h3V20.7z"/>
<path fill="#FFFFFF" d="M204.3,0v20.7h2v-7.6c0-1.8,0-3.1,0.7-4.3c0.8-1.4,2.2-2.1,4-2.1c3.6,0,4.5,2.1,4.5,6v8h2v-7.9
	c0-5.3-1.7-8-6.3-8c-2,0-3.7,0.8-4.8,2.2V0H204.3z"/>
<path fill="#908A83" d="M2,48c0-3.3,2.8-6.2,5.9-6.2c3.2,0,6.1,2.6,6.1,6.5c0,3.6-2.9,6.2-6,6.2C4.9,54.4,2,51.7,2,48z M0,40.3V61h2
	v-4.1c0-0.8,0-1.6,0-2.3c0-0.4,0-0.7,0-1.1c1.3,1.9,3.4,2.9,6,2.9c4.7,0,8.1-3.7,8.1-8.1c0-4.6-3.4-8.2-8.2-8.2
	c-2.4,0-4.7,1.2-5.8,2.9v-2.6H0z"/>
<path fill="#908A83" d="M19.6,35.2v20.7h2v-7.6c0-1.8,0-3.1,0.7-4.3c0.8-1.4,2.2-2.1,4-2.1c3.6,0,4.5,2.1,4.5,6v8h2V48
	c0-5.3-1.7-8-6.3-8c-2,0-3.7,0.8-4.8,2.2v-6.9H19.6z"/>
<path fill="#908A83" d="M36.2,48.1c0,4.4,3.4,8.2,8.1,8.2c4.5,0,8.1-3.8,8.1-8.4c0-4.3-3.6-8.1-8.2-8.1C40,39.8,36.2,43.4,36.2,48.1
	z M38.3,48.1c0-3.8,2.8-6.4,5.8-6.4c3.5,0,6.1,2.6,6.1,6.3c0,3.7-2.7,6.4-6,6.4C40.9,54.4,38.3,51.7,38.3,48.1z"/>
<path fill="#908A83" d="M57.3,55.9h2V42.3h3v-2h-3v-5.1h-2v5.1h-3v2h3V55.9z"/>
<path fill="#908A83" d="M64.2,48.1c0,4.4,3.4,8.2,8.1,8.2c4.5,0,8.1-3.8,8.1-8.4c0-4.3-3.6-8.1-8.2-8.1C68,39.8,64.2,43.4,64.2,48.1
	z M66.3,48.1c0-3.8,2.8-6.4,5.8-6.4c3.5,0,6.1,2.6,6.1,6.3c0,3.7-2.7,6.4-6,6.4C68.9,54.4,66.3,51.7,66.3,48.1z"/>
<path fill="#908A83" d="M85.2,48c0-3.6,2.8-6.2,6-6.2c3.1,0,5.9,2.8,5.9,6.5c0,3.4-2.9,6.2-5.9,6.2C88.1,54.4,85.2,51.8,85.2,48z
	 M86.6,57.2h-2.3c0.7,2.9,3.5,4.8,7,4.8c4.6,0,7.7-3,7.7-8.7v-13h-2v2.6c-1.5-2.1-3.4-2.9-6-2.9c-4.5,0-8,3.5-8,8.1
	c0,4.6,3.4,8.2,8.2,8.2c2.3,0,4.3-1,5.8-3.1c0,0.1,0,0.3,0,0.4c0,4.1-2.5,6.5-5.9,6.5C88.9,60.1,87.2,59,86.6,57.2z"/>
<path fill="#908A83" d="M105.3,55.9v-9.4c0-2.6,0.8-4,3.5-4.2V40c-1.5,0-2.7,0.6-3.7,2v-1.8h-1.9v15.6H105.3z"/>
<path fill="#908A83" d="M125.1,53.4v2.5h2V40.3h-2v2.5c-1.3-1.8-3.4-2.8-5.8-2.8c-4.8,0-8.2,3.6-8.2,8.2c0,4.4,3.3,8.1,8,8.1
	C121.6,56.3,123.8,55.2,125.1,53.4z M125.1,48c0,3.7-2.9,6.5-6,6.5c-3.2,0-6-2.6-6-6.2c0-3.8,2.9-6.5,6.1-6.5
	C122.2,41.8,125.1,44.6,125.1,48z"/>
<path fill="#908A83" d="M133.3,48c0-3.3,2.8-6.2,5.9-6.2c3.2,0,6.1,2.6,6.1,6.5c0,3.6-2.9,6.2-6,6.2C136.2,54.4,133.3,51.7,133.3,48
	z M131.3,40.3V61h2v-4.1c0-0.8,0-1.6,0-2.3c0-0.4,0-0.7,0-1.1c1.3,1.9,3.4,2.9,6,2.9c4.7,0,8.1-3.7,8.1-8.1c0-4.6-3.4-8.2-8.2-8.2
	c-2.4,0-4.7,1.2-5.8,2.9v-2.6H131.3z"/>
<path fill="#908A83" d="M150.9,35.2v20.7h2v-7.6c0-1.8,0-3.1,0.7-4.3c0.8-1.4,2.2-2.1,4-2.1c3.6,0,4.5,2.1,4.5,6v8h2V48
	c0-5.3-1.7-8-6.3-8c-2,0-3.7,0.8-4.8,2.2v-6.9H150.9z"/>
<path fill="#908A83" d="M166.3,40.3l6,15.6l-2.1,5.1h2.2l8.5-20.7h-2.3L173.5,53l-4.8-12.7H166.3z"/>
<path fill="#908A83" d="M217.2,60h-26V34.1h26V60z"/>
<path fill="#C5D316" d="M209.8,47c0,3.1-2.5,5.6-5.6,5.6c-3.1,0-5.6-2.5-5.6-5.6c0-3.1,2.5-5.6,5.6-5.6
	C207.3,41.5,209.8,44,209.8,47z"/>
</svg>
